<?xml version="1.0" encoding="UTF-8" standalone="no"?>
<!DOCTYPE svg PUBLIC "-//W3C//DTD SVG 1.1//EN" "http://www.w3.org/Graphics/SVG/1.1/DTD/svg11.dtd">
<svg width="100%" height="100%" viewBox="0 0 1024 1024" version="1.1" xmlns="http://www.w3.org/2000/svg" xmlns:xlink="http://www.w3.org/1999/xlink" xml:space="preserve" xmlns:serif="http://www.serif.com/" style="fill-rule:evenodd;clip-rule:evenodd;stroke-linecap:round;stroke-linejoin:round;stroke-miterlimit:1.5;">
    <g transform="matrix(2.58575,0,0,2.58575,-811.9,-954.84)">
        <path d="M512.445,634.021C512.716,639.446 513.085,647.073 513.476,655.882C514.086,669.601 514.819,686.128 515.327,701.646C515.694,712.858 515.939,723.513 516.092,732.155C516.253,741.291 516.289,748.164 516.296,751.029L516.299,752.494L507.701,752.494C507.701,752.494 507.694,744.336 507.908,732.155C508.061,723.513 508.306,712.858 508.673,701.646C509.181,686.128 509.914,669.601 510.524,655.882C511.306,638.263 512,625.373 512,625.373C512,625.373 512.043,626.179 512.121,627.663L512.445,634.021Z" style="fill:white;"/>
    </g>
    <g transform="matrix(1.5156,2.095,2.095,-1.5156,-1449.31,339.739)">
        <path d="M508.043,756.835L508.042,756.84L514.337,758.236L514.338,758.23L514.401,757.931L514.767,756.181L514.781,756.11C515.754,751.407 516.639,746.682 517.387,741.937C518.29,736.326 519.038,730.687 519.601,725.038C520.717,713.835 521.172,702.608 520.996,691.503C520.731,674.823 519.035,658.453 516.015,642.843C514.871,636.897 513.53,631.064 512,625.373C516.159,646.194 517.574,668.609 516.688,691.453C516.264,702.378 515.295,713.383 513.843,724.371C513.506,726.918 513.146,729.463 512.759,732.007C512.475,733.814 512.178,735.62 511.867,737.423C510.748,743.918 509.516,750.401 508.046,756.823L508.043,756.835Z" style="fill:white;"/>
    </g>
    <g transform="matrix(-1.5156,2.095,-2.095,-1.5156,2473.32,339.739)">
        <path d="M508.043,756.835L508.046,756.823C509.516,750.401 510.748,743.918 511.867,737.423C512.178,735.62 512.475,733.814 512.759,732.007C513.146,729.463 513.506,726.917 513.843,724.37C515.295,713.383 516.264,702.378 516.688,691.453C517.574,668.609 516.159,646.194 512,625.373C513.53,631.064 514.871,636.897 516.015,642.843C519.035,658.453 520.731,674.823 520.996,691.503C521.172,702.608 520.717,713.835 519.601,725.038C519.038,730.686 518.291,736.324 517.387,741.937C516.639,746.682 515.754,751.407 514.781,756.11L514.767,756.181L514.401,757.931L514.338,758.23L514.337,758.236L508.042,756.84L508.043,756.835Z" style="fill:white;"/>
    </g>
    <g transform="matrix(-1.29899,2.23578,-2.23578,-1.29899,2509.12,31.2019)">
        <path d="M507.977,755.992C508.001,753.013 508.072,745.868 508.251,736.371C508.42,727.389 508.672,716.309 509.019,704.655C509.498,688.533 510.154,671.341 510.698,657.085C511.397,638.783 512,625.373 512,625.373C512,625.373 512.439,638.789 512.913,657.099C513.282,671.36 513.727,688.559 514.009,704.686C514.213,716.343 514.329,727.425 514.388,736.408C514.472,749.074 514.414,757.555 514.414,757.555L507.966,757.515L507.977,755.992Z" style="fill:white;"/>
    </g>
    <g transform="matrix(1.29899,2.23578,2.23578,-1.29899,-1485.13,31.2019)">
        <path d="M512,625.373C512,625.373 511.397,638.783 510.698,657.085C510.154,671.341 509.498,688.533 509.019,704.655C508.672,716.309 508.42,727.389 508.251,736.37C508.012,749.034 507.966,757.515 507.966,757.515L514.414,757.555C514.414,757.555 514.472,749.074 514.388,736.408C514.329,727.425 514.213,716.343 514.009,704.686C513.727,688.559 513.282,671.36 512.913,657.099C512.439,638.789 512,625.373 512,625.373Z" style="fill:white;"/>
    </g>
    <g transform="matrix(-2.58575,-2.96241e-16,-2.96241e-16,2.58575,1750.42,-975.641)">
        <path d="M524.232,558.762C528.416,576.746 528.345,606.681 526.033,638.528C525.173,650.381 524.002,662.491 522.632,674.353C521.327,685.648 519.824,696.707 518.226,707.089C516.743,716.563 515.167,725.485 513.557,733.519C511.754,742.509 509.937,750.383 508.093,756.638L514.28,758.453L514.286,758.432L514.286,758.433L514.293,758.408C517.685,746.695 521.12,729.089 523.82,708.834C525.903,693.216 527.571,676.025 528.624,658.792C529.271,648.205 529.687,637.607 529.83,627.348C530.278,599.512 528.698,574.276 524.232,558.762Z" style="fill:white;"/>
    </g>
    <g transform="matrix(2.58575,-2.96241e-16,2.96241e-16,2.58575,-726.425,-975.641)">
        <path d="M524.232,558.762C528.698,574.276 530.278,599.512 529.83,627.348C529.687,637.607 529.271,648.205 528.624,658.792C527.571,676.025 525.903,693.216 523.82,708.834C521.12,729.089 517.685,746.695 514.293,758.408L514.286,758.433L514.286,758.432L514.28,758.453L508.093,756.638C509.937,750.383 511.754,742.509 513.557,733.519C515.167,725.485 516.743,716.562 518.226,707.088C519.824,696.706 521.327,685.648 522.632,674.353C524.002,662.491 525.173,650.381 526.033,638.528C528.345,606.681 528.416,576.746 524.232,558.762Z" style="fill:white;"/>
    </g>
    <g transform="matrix(-2.34767,-1.08374,-1.08374,2.34767,2367.18,-250.477)">
        <path d="M512.088,629.343C512.482,649.188 512.15,669.012 511.406,688.937C511.013,699.481 510.481,710.02 509.866,720.598C509.613,724.944 509.358,729.295 509.08,733.651C508.64,739.8 508.239,745.978 507.713,752.178L507.713,752.18L516.287,752.81L516.287,752.803C516.688,746.393 517.075,740.014 517.27,733.656L517.339,731.239C517.457,727.781 517.544,724.326 517.589,720.873C517.731,710.197 517.565,699.557 517.15,688.932C516.37,668.945 514.668,649.121 512.45,629.331L512,625.373L512.088,629.343Z" style="fill:white;"/>
    </g>
    <g transform="matrix(2.34767,-1.08374,1.08374,2.34767,-1343.18,-250.477)">
        <path d="M512.45,629.331C514.668,649.121 516.37,668.945 517.15,688.932C517.565,699.557 517.731,710.197 517.589,720.873C517.544,724.327 517.457,727.781 517.339,731.238L517.27,733.656C517.075,740.014 516.688,746.393 516.287,752.803L516.287,752.81L507.713,752.18L507.713,752.178C508.239,745.978 508.64,739.8 509.08,733.651C509.358,729.297 509.613,724.945 509.866,720.598C510.481,710.02 511.013,699.481 511.406,688.937C512.15,669.012 512.482,649.188 512.088,629.343L512,625.373L512.45,629.331Z" style="fill:white;"/>
    </g>
    <g transform="matrix(2.41228,-0.931094,0.931094,2.41228,-1190.9,-420.832)">
        <path d="M512,625.373C516.476,645.436 519.061,666.96 519.575,688.867C519.599,689.744 519.619,690.622 519.635,691.501C519.839,702.631 519.519,713.821 518.649,724.918C518.366,728.527 518.018,732.126 517.612,735.708C517.521,736.553 517.426,737.399 517.328,738.244C516.553,744.937 515.517,751.568 514.36,758.121L514.36,758.122L508.02,756.949L508.02,756.948L508.021,756.94C509.252,750.563 510.281,744.096 511.23,737.589C511.843,733.205 512.387,728.796 512.878,724.372C514.09,713.451 514.927,702.443 515.327,691.462C516.151,668.846 515.2,646.418 512,625.373Z" style="fill:white;"/>
    </g>
    <g transform="matrix(-2.41228,-0.931094,-0.931094,2.41228,2214.9,-420.832)">
        <path d="M512,625.373C515.2,646.418 516.151,668.846 515.327,691.462C514.927,702.443 514.09,713.451 512.878,724.372C512.387,728.796 511.843,733.205 511.23,737.589C510.281,744.097 509.252,750.563 508.021,756.94L508.02,756.948L508.02,756.949L514.36,758.122L514.36,758.121C515.517,751.568 516.553,744.937 517.328,738.244C517.426,737.399 517.521,736.553 517.612,735.708C518.018,732.126 518.366,728.527 518.649,724.918C519.519,713.821 519.839,702.631 519.635,691.501C519.619,690.622 519.599,689.744 519.575,688.867C519.061,666.96 516.476,645.436 512,625.373Z" style="fill:white;"/>
    </g>
    <g transform="matrix(-0.365307,2.55981,-2.55981,-0.365307,2241.27,-571.216)">
        <path d="M507.994,757.113L507.995,757.107C508.884,750.627 509.628,744.073 510.35,737.488C511.157,730.133 511.859,722.734 512.434,715.327C512.732,711.485 512.997,707.647 513.228,703.815L513.233,703.719L513.318,702.268C513.526,698.653 513.7,695.043 513.84,691.441C514.721,668.639 514.329,646.225 512,625.373C515.708,646.008 517.806,668.444 518.156,691.493C518.324,702.51 518.098,713.652 517.462,724.784C516.829,735.871 515.729,746.934 514.399,757.854L514.387,757.948L514.386,757.957L507.992,757.122L507.994,757.113Z" style="fill:white;"/>
    </g>
    <g transform="matrix(0.365307,2.55981,2.55981,-0.365307,-1217.27,-571.216)">
        <path d="M507.994,757.113L507.992,757.122L514.386,757.957L514.387,757.948L514.399,757.854C515.729,746.934 516.829,735.871 517.462,724.784C518.098,713.652 518.324,702.51 518.156,691.493C517.806,668.444 515.708,646.008 512,625.373C514.329,646.225 514.721,668.639 513.84,691.441C513.7,695.043 513.526,698.653 513.318,702.268L513.233,703.719L513.228,703.815C512.997,707.646 512.732,711.485 512.434,715.327C511.859,722.734 511.157,730.133 510.35,737.488C509.628,744.073 508.884,750.627 507.995,757.107L507.994,757.113Z" style="fill:white;"/>
    </g>
    <g transform="matrix(-4.4436e-16,2.58575,-2.58575,-4.4436e-16,2072.12,-944.784)">
        <path d="M507.993,755.958C508.048,752.977 508.192,745.826 508.468,736.322C508.73,727.335 509.095,716.249 509.562,704.588C510.207,688.457 511.039,671.257 511.73,656.995C512.616,638.684 513.357,625.269 513.357,625.269C513.357,625.269 513.658,638.701 513.944,657.031C514.167,671.308 514.435,688.526 514.552,704.67C514.636,716.339 514.638,727.432 514.605,736.423C514.558,749.1 514.413,757.588 514.413,757.588L507.966,757.482L507.993,755.958Z" style="fill:white;"/>
    </g>
    <g transform="matrix(4.4436e-16,2.58575,2.58575,-4.4436e-16,-1048.13,-944.784)">
        <path d="M514.413,757.588C514.413,757.588 514.558,749.107 514.605,736.44C514.638,727.456 514.636,716.372 514.552,704.711C514.435,688.58 514.167,671.376 513.944,657.11C513.658,638.795 513.357,625.373 513.357,625.373C513.357,625.373 512.616,638.778 511.73,657.074C511.039,671.325 510.207,688.511 509.562,704.63C509.095,716.281 508.73,727.359 508.468,736.339C508.1,749.001 507.966,757.482 507.966,757.482L514.413,757.588Z" style="fill:white;"/>
    </g>
    <g transform="matrix(1.5128,0,0,1.5128,-425.076,-310.306)">
        <circle cx="619.431" cy="542.876" r="317.264" style="fill:none;stroke:white;stroke-width:11.02px;"/>
    </g>
    <g transform="matrix(1.36216,0,0,1.36216,-181.929,-188.229)">
        <path d="M808.516,273.578L210.345,273.578L210.345,871.749L808.516,871.749L808.516,273.578ZM222.588,285.821L222.588,859.506L796.273,859.506L796.273,285.821L222.588,285.821Z" style="fill:white;"/>
    </g>
    <g transform="matrix(1.2559,0,0,1.2559,-129.908,-148.424)">
        <path d="M586.741,274.519C536.324,267.804 485.907,267.928 435.489,274.519C424.315,324.936 424.488,375.353 435.489,425.77C485.907,436.236 536.324,436.372 586.741,425.77C597.579,375.353 598.08,324.936 586.741,274.519ZM579.404,282.511C533.887,276.956 488.367,277.054 442.841,282.523C433.654,327.759 433.826,372.994 442.954,418.232C488.39,426.95 533.822,427.063 579.256,418.25C588.271,373.004 588.711,327.76 579.404,282.511Z" style="fill:white;"/>
    </g>
</svg>
